<?xml version="1.0" encoding="UTF-8" standalone="no"?>
<!-- Created with Inkscape (http://www.inkscape.org/) -->

<svg
   width="210mm"
   height="297mm"
   viewBox="0 0 210 297"
   version="1.1"
   id="svg5"
   xmlns="http://www.w3.org/2000/svg"
   xmlns:svg="http://www.w3.org/2000/svg">
  <defs
     id="defs2" />
  <g
     id="layer1">
    <path
       style="fill:#000000;stroke-width:0.176389"
       d="m 67.963326,153.34499 v -37.92361 h 40.569434 40.56944 v 37.92361 37.92361 H 108.53276 67.963326 Z m 41.451374,34.37424 c 0,-0.0851 -0.11412,-0.1548 -0.25362,-0.1548 -0.14267,0 -0.24229,0.15039 -0.22772,0.34379 0.0196,0.25989 0.0815,0.29767 0.25362,0.15479 0.12525,-0.10395 0.22772,-0.25865 0.22772,-0.34378 z m -28.80684,-0.18554 c 0.909273,-0.85422 0.220824,-2.08592 -1.165907,-2.08592 h -0.8071 v 1.23472 1.23472 h 0.782382 c 0.560525,0 0.898145,-0.10875 1.190625,-0.38352 z m -1.355646,-0.8512 c 0,-0.93054 0.05964,-0.98466 0.782267,-0.70992 0.873698,0.33218 0.473216,1.59186 -0.506087,1.59186 -0.213823,0 -0.27618,-0.19912 -0.27618,-0.88194 z m 4.573309,0.76996 c 0.480089,-0.61033 0.461551,-1.0428 -0.06737,-1.57173 -0.808172,-0.80817 -2.03649,-0.32458 -2.03649,0.80177 0,1.1548 1.398546,1.66663 2.103864,0.76996 z m -1.369097,-0.16963 c -0.760905,-0.53296 -0.07185,-1.63628 0.808635,-1.29479 0.518874,0.20124 0.555831,1.12614 0.05569,1.39381 -0.429468,0.22984 -0.388033,0.23459 -0.864329,-0.099 z m 3.020428,-0.29165 -0.07358,-0.92604 0.554999,0.92604 c 0.360911,0.6022 0.673278,0.92604 0.893217,0.92604 0.291751,0 0.338219,-0.1313 0.338219,-0.95571 0,-0.52564 0.04818,-1.08127 0.107066,-1.23472 0.07992,-0.20828 -0.004,-0.27901 -0.33111,-0.27901 -0.414983,0 -0.433442,0.042 -0.34871,0.79375 0.04921,0.43656 0.047,0.79375 -0.0049,0.79375 -0.0519,0 -0.303699,-0.35719 -0.559541,-0.79375 -0.351197,-0.59927 -0.57139,-0.79375 -0.898705,-0.79375 -0.439211,0 -0.580002,0.24144 -0.257148,0.44097 0.09701,0.06 0.176389,0.41715 0.176389,0.79375 0,0.3766 -0.07937,0.73379 -0.176389,0.79375 -0.31756,0.19626 -0.185103,0.44097 0.238691,0.44097 0.392481,0 0.411074,-0.0504 0.341504,-0.92604 z m 3.863679,-0.13229 c -0.0513,-0.70923 -0.01138,-1.05833 0.121036,-1.05833 0.108673,0 0.197589,0.11906 0.197589,0.26458 0,0.14552 0.07937,0.26458 0.176389,0.26458 0.09701,0 0.176389,-0.19844 0.176389,-0.44097 0,-0.42193 -0.04622,-0.44097 -1.070601,-0.44097 -0.998523,0 -1.066807,0.0258 -1.014236,0.38306 0.06564,0.4461 0.497337,0.66224 0.497337,0.249 0,-0.15361 0.08892,-0.27928 0.197589,-0.27928 0.132412,0 0.172337,0.3491 0.121036,1.05833 -0.07131,0.98589 -0.05086,1.05833 0.298736,1.05833 0.349599,0 0.370048,-0.0724 0.298736,-1.05833 z m 4.022792,0.89235 c 0,-0.0913 -0.07937,-0.21503 -0.176389,-0.27499 -0.230114,-0.14222 -0.22909,-1.44591 0.0012,-1.58827 0.0977,-0.0604 0.225254,0.0143 0.283455,0.16598 0.163743,0.42668 0.420865,0.32575 0.420865,-0.16521 0,-0.42137 -0.04704,-0.44097 -1.058333,-0.44097 -1.011296,0 -1.058333,0.0196 -1.058333,0.44097 0,0.27438 0.09995,0.44097 0.264583,0.44097 0.145521,0 0.264583,-0.11906 0.264583,-0.26458 0,-0.14552 0.08892,-0.26458 0.19759,-0.26458 0.132411,0 0.172337,0.3491 0.121036,1.05833 -0.0731,1.01064 -0.05816,1.05833 0.331577,1.05833 0.224473,0 0.408131,-0.0747 0.408131,-0.16598 z m 3.415841,-0.3496 c -0.09232,-0.4616 -0.05216,-0.52163 0.383494,-0.57327 0.618031,-0.0733 0.949583,-0.55317 0.679611,-0.98372 -0.126115,-0.20112 -0.463827,-0.32678 -0.969236,-0.36064 l -0.775683,-0.052 v 1.24259 c 0,1.16687 0.02391,1.24258 0.392466,1.24258 0.3397,0 0.378601,-0.0693 0.289348,-0.51558 z m -0.06445,-1.26124 c 0,-0.25243 0.09499,-0.34742 0.306655,-0.30666 0.459798,0.0885 0.511078,0.67237 0.05906,0.67237 -0.252428,0 -0.36571,-0.11328 -0.36571,-0.36571 z m 2.469447,1.32358 c 0,-0.36913 0.0737,-0.44278 0.39687,-0.39687 0.25505,0.0362 0.41702,0.19819 0.453237,0.45324 0.031,0.21828 0.1566,0.39687 0.2791,0.39687 0.16285,0 0.20117,-0.27265 0.14254,-1.01423 -0.0906,-1.14621 -0.26413,-1.45521 -0.817097,-1.45521 -0.57392,0 -0.80743,0.33877 -0.80743,1.17139 0,0.41144 -0.0794,0.79712 -0.17639,0.85708 -0.29828,0.18435 -0.19563,0.44097 0.17639,0.44097 0.26125,0 0.35278,-0.11759 0.35278,-0.45324 z m 0,-1.11539 c 0,-0.4033 0.41,-0.59665 0.68406,-0.32258 0.337467,0.33747 0.219337,0.65649 -0.24309,0.65649 -0.31507,0 -0.44097,-0.0953 -0.44097,-0.33391 z m 2.865807,0.77488 c -0.0492,-0.43656 -0.047,-0.79375 0.005,-0.79375 0.0519,0 0.30369,0.35719 0.55953,0.79375 0.62431,1.06529 0.97873,1.04937 0.98188,-0.0441 0.001,-0.46081 0.0503,-1.01644 0.10876,-1.23472 0.084,-0.31325 0.0332,-0.39687 -0.2411,-0.39687 -0.31066,0 -0.33987,0.0981 -0.27581,0.92604 l 0.0717,0.92604 -0.58102,-0.92604 c -0.38714,-0.61702 -0.69927,-0.92604 -0.93539,-0.92604 -0.32114,0 -0.35436,0.11575 -0.35436,1.23472 0,1.14173 0.0283,1.23472 0.37521,1.23472 0.34035,0 0.36689,-0.0737 0.28574,-0.79375 z m 3.2196,-0.44097 c 0,-0.98177 -0.0544,-1.23472 -0.26547,-1.23472 -0.21117,0 -0.26529,0.25253 -0.26459,1.23449 7.1e-4,0.97924 0.0556,1.23454 0.26547,1.23472 0.21001,1.8e-4 0.26459,-0.25445 0.26459,-1.23449 z m 2.6314,1.12766 c 0.15346,-0.0589 0.27901,-0.25733 0.27901,-0.44098 0,-0.40077 -0.11538,-0.42011 -0.45862,-0.0769 -0.43548,0.43548 -1.04068,0.0808 -1.04068,-0.60981 0,-0.69066 0.6052,-1.04529 1.04068,-0.60981 0.3442,0.3442 0.45862,0.32381 0.45862,-0.0817 0,-0.41963 -0.87434,-0.65406 -1.39672,-0.37449 -0.75959,0.40652 -0.90129,1.14069 -0.35436,1.83599 0.35631,0.45299 0.88743,0.58204 1.47207,0.3577 z m 4.51234,-0.0589 c 0,-0.0913 -0.0794,-0.21503 -0.17638,-0.27499 -0.097,-0.06 -0.17639,-0.41715 -0.17639,-0.79375 0,-0.3766 0.0794,-0.73379 0.17639,-0.79375 0.31215,-0.19293 0.18813,-0.44097 -0.22049,-0.44097 -0.37378,0 -0.39688,0.0719 -0.39688,1.23472 0,1.16286 0.0231,1.23472 0.39688,1.23472 0.21828,0 0.39687,-0.0747 0.39687,-0.16598 z m 1.97443,-0.89235 c -0.0513,-0.70923 -0.0114,-1.05833 0.12104,-1.05833 0.10867,0 0.19759,0.11906 0.19759,0.26458 0,0.14552 0.0794,0.26458 0.17639,0.26458 0.097,0 0.17639,-0.19844 0.17639,-0.44097 0,-0.42193 -0.0462,-0.44097 -1.0706,-0.44097 -0.99853,0 -1.06681,0.0258 -1.01424,0.38306 0.0656,0.4461 0.49734,0.66224 0.49734,0.249 0,-0.15361 0.0889,-0.27928 0.19759,-0.27928 0.13241,0 0.17233,0.3491 0.12103,1.05833 -0.0713,0.98589 -0.0509,1.05833 0.29874,1.05833 0.3496,0 0.37005,-0.0724 0.29873,-1.05833 z m 3.858,0.87574 c 0.60396,-0.32323 0.31713,-1.22852 -0.38924,-1.22852 -0.1689,0 -0.36163,-0.0883 -0.42829,-0.19611 -0.17255,-0.2792 0.28964,-0.51497 0.64095,-0.32695 0.32472,0.17378 0.51777,0.0619 0.51777,-0.30009 0,-0.33442 -1.14257,-0.30214 -1.48671,0.042 -0.15245,0.15245 -0.27718,0.33572 -0.27718,0.40726 0,0.26647 0.45269,0.69895 0.79375,0.7583 0.19402,0.0338 0.35277,0.17937 0.35277,0.32356 0,0.18996 -0.15789,0.24636 -0.57326,0.20478 -0.42845,-0.0429 -0.57326,0.0128 -0.57326,0.22048 0,0.32577 0.8817,0.38482 1.4227,0.0953 z m 4.57452,-0.17019 c 0.74153,-0.74152 0.20459,-2.11666 -0.82648,-2.11666 -0.60789,0 -1.29019,0.63989 -1.29019,1.21 0,1.04828 1.38276,1.64057 2.11667,0.90666 z m -1.27882,-0.19051 c -0.46723,-0.27214 -0.40862,-1.19321 0.0882,-1.38589 0.88049,-0.34149 1.56954,0.76183 0.80864,1.29479 -0.46664,0.32685 -0.48829,0.32905 -0.89683,0.0911 z m 3.10503,-0.03 c -0.099,-0.539 -0.0893,-0.55262 0.16117,-0.22788 0.14654,0.18997 0.22708,0.44794 0.17899,0.57327 -0.0599,0.1561 0.0851,0.22787 0.46059,0.22787 0.65167,0 0.68074,-0.10057 0.1527,-0.52816 -0.37762,-0.30578 -0.38157,-0.33535 -0.0882,-0.65953 0.63433,-0.70092 0.25796,-1.28175 -0.83056,-1.28175 h -0.71437 v 1.23472 c 0,1.15875 0.0241,1.23472 0.39246,1.23472 0.34678,0 0.38022,-0.0667 0.28722,-0.57326 z m -0.0623,-1.20356 c 0,-0.25243 0.095,-0.34742 0.30665,-0.30666 0.4598,0.0885 0.51108,0.67237 0.0591,0.67237 -0.25243,0 -0.36571,-0.11328 -0.36571,-0.36571 z m 3.71576,1.59423 c 0.19565,-0.10471 0.34118,-0.36805 0.34118,-0.61736 0,-0.36548 -0.0843,-0.43477 -0.52916,-0.43477 -0.29105,0 -0.52917,0.0794 -0.52917,0.17639 0,0.097 0.11906,0.17639 0.26458,0.17639 0.30352,0 0.3535,0.277 0.0804,0.44576 -0.27047,0.16716 -1.05058,-0.40262 -1.05058,-0.76733 0,-0.17239 0.0952,-0.40868 0.21167,-0.5251 0.27761,-0.27761 0.97157,-0.27191 1.0745,0.009 0.0637,0.17369 0.13232,0.17117 0.32338,-0.0119 0.20494,-0.19634 0.18946,-0.27153 -0.0999,-0.48507 -0.79136,-0.58408 -1.86246,-0.0193 -1.86246,0.98201 0,0.95542 0.9283,1.50552 1.77548,1.05213 z m 1.5759,-0.27065 c 0,-0.36913 0.0737,-0.44278 0.39688,-0.39687 0.25505,0.0362 0.41702,0.19819 0.45324,0.45324 0.031,0.21828 0.15659,0.39687 0.27909,0.39687 0.16286,0 0.20118,-0.27265 0.14255,-1.01423 -0.0906,-1.14621 -0.26413,-1.45521 -0.8171,-1.45521 -0.57392,0 -0.80743,0.33877 -0.80743,1.17139 0,0.41144 -0.0794,0.79712 -0.17639,0.85708 -0.29828,0.18435 -0.19563,0.44097 0.17639,0.44097 0.26125,0 0.35277,-0.11759 0.35277,-0.45324 z m 0,-1.11539 c 0,-0.4033 0.41,-0.59665 0.68406,-0.32258 0.33748,0.33747 0.21935,0.65649 -0.24308,0.65649 -0.31508,0 -0.44098,-0.0953 -0.44098,-0.33391 z m 2.86581,0.77488 c -0.0492,-0.43656 -0.047,-0.79375 0.005,-0.79375 0.0519,0 0.3037,0.35719 0.55954,0.79375 0.6243,1.06529 0.97873,1.04937 0.98187,-0.0441 0.001,-0.46081 0.0503,-1.01644 0.10877,-1.23472 0.0839,-0.31325 0.0332,-0.39687 -0.2411,-0.39687 -0.31066,0 -0.33987,0.0981 -0.27581,0.92604 l 0.0717,0.92604 -0.58103,-0.92604 c -0.38713,-0.61702 -0.69927,-0.92604 -0.93538,-0.92604 -0.32115,0 -0.35437,0.11575 -0.35437,1.23472 0,1.14173 0.0283,1.23472 0.37521,1.23472 0.34035,0 0.3669,-0.0737 0.28574,-0.79375 z m 3.21961,-0.44097 c 0,-0.98177 -0.0544,-1.23472 -0.26547,-1.23472 -0.21116,0 -0.26529,0.25253 -0.26458,1.23449 7e-4,0.97924 0.0556,1.23454 0.26547,1.23472 0.21001,1.8e-4 0.26458,-0.25445 0.26458,-1.23449 z m 2.63141,1.12766 c 0.15345,-0.0589 0.27901,-0.25733 0.27901,-0.44098 0,-0.40077 -0.11539,-0.42011 -0.45862,-0.0769 -0.43548,0.43548 -1.04069,0.0808 -1.04069,-0.60981 0,-0.69066 0.60521,-1.04529 1.04069,-0.60981 0.3442,0.3442 0.45862,0.32381 0.45862,-0.0817 0,-0.41963 -0.87435,-0.65406 -1.39673,-0.37449 -0.75959,0.40652 -0.90129,1.14069 -0.35436,1.83599 0.35632,0.45299 0.88744,0.58204 1.47208,0.3577 z m -47.377144,-2.06832 c 0.03296,-0.16992 -0.0555,-0.29406 -0.209524,-0.29406 -0.158353,0 -0.255702,0.14406 -0.23982,0.35491 0.03122,0.41445 0.365956,0.36913 0.449344,-0.0609 z m 24.971304,0.13248 c 0.15064,-0.39254 0.13896,-0.42654 -0.14655,-0.42654 -0.14489,0 -0.24223,0.15124 -0.22705,0.35278 0.0318,0.42265 0.22508,0.4608 0.3736,0.0738 z m -42.22625,-4.91405 c 0,-0.52785 -0.07937,-1.00878 -0.176389,-1.06874 -0.09701,-0.06 -0.176389,-0.73933 -0.176389,-1.50972 v -1.4007 h 1.322917 1.322916 v 1.4007 c 0,0.77039 -0.07937,1.44976 -0.176388,1.50972 -0.09701,0.06 -0.176389,0.54089 -0.176389,1.06874 v 0.95973 h 1.411111 1.411111 v -0.95973 c 0,-0.52785 -0.07937,-1.00878 -0.176389,-1.06874 -0.108921,-0.0673 -0.176389,-1.58933 -0.176389,-3.97916 0,-2.46251 0.06416,-3.87015 0.176389,-3.87015 0.09799,0 0.176389,-0.47037 0.176389,-1.05833 v -1.05833 h -1.411111 -1.411111 v 1.05833 c 0,0.58796 0.07839,1.05833 0.176389,1.05833 0.102893,0 0.176388,0.58796 0.176388,1.41111 v 1.41111 h -1.322916 -1.322917 v -1.41111 c 0,-0.82315 0.0735,-1.41111 0.176389,-1.41111 0.09799,0 0.176389,-0.47037 0.176389,-1.05833 v -1.05833 h -1.411111 -1.411111 v 1.05833 c 0,0.58796 0.0784,1.05833 0.176389,1.05833 0.112233,0 0.176389,1.40764 0.176389,3.87015 0,2.38983 -0.06747,3.91184 -0.176389,3.97916 -0.09701,0.06 -0.176389,0.54089 -0.176389,1.06874 v 0.95973 h 1.411111 1.411111 z m 11.994444,-0.27499 v -1.23472 h -0.959729 c -0.527851,0 -1.008785,0.0794 -1.068743,0.17638 -0.05996,0.097 -0.464856,0.17639 -0.899774,0.17639 h -0.79076 l 0.05152,-1.36701 0.05152,-1.36701 1.367014,-0.0515 1.367013,-0.0515 v -1.05091 -1.05092 h -1.411111 -1.411111 v -1.32291 -1.32292 h 0.871535 c 0.479344,0 0.920591,0.0794 0.980549,0.17639 0.05996,0.097 0.501204,0.17639 0.980548,0.17639 h 0.871535 v -1.32292 -1.32291 h -3.086806 -3.086805 v 1.05833 c 0,0.58796 0.0784,1.05833 0.176389,1.05833 0.112233,0 0.176389,1.40764 0.176389,3.87015 0,2.38983 -0.06747,3.91184 -0.176389,3.97916 -0.09701,0.06 -0.176389,0.54089 -0.176389,1.06874 v 0.95973 h 3.086805 3.086806 z m 4.056944,0.38805 c 0,-0.46566 -0.08219,-0.92886 -0.182651,-1.02931 -0.110193,-0.1102 -0.162673,-0.94639 -0.132291,-2.10785 l 0.05036,-1.9252 0.421509,1.1108 0.42151,1.11079 0.89491,-0.0525 0.894911,-0.0525 0.447469,-1.14633 0.447468,-1.14634 0.05036,1.925 c 0.03038,1.16134 -0.0221,1.99747 -0.132291,2.10766 -0.100457,0.10045 -0.182651,0.60334 -0.182651,1.11751 v 0.93486 h 1.411111 1.411111 v -0.95973 c 0,-0.52785 -0.07937,-1.00878 -0.176389,-1.06874 -0.108694,-0.0672 -0.176389,-1.55647 -0.176389,-3.88056 0,-2.32409 0.0677,-3.81338 0.176389,-3.88055 0.09701,-0.06 0.176389,-0.58058 0.176389,-1.15694 v -1.04792 h -1.289209 -1.289207 l -0.852408,2.20931 c -0.468824,1.21512 -0.900712,2.16152 -0.959749,2.10312 -0.05904,-0.0584 -0.470408,-1.03274 -0.914153,-2.16521 l -0.806808,-2.05903 -1.353956,-0.0515 -1.353954,-0.0515 v 0.96715 c 0,0.53193 0.07937,1.0162 0.176389,1.07616 0.108897,0.0673 0.176389,1.58586 0.176389,3.96875 0,2.38289 -0.06749,3.90144 -0.176389,3.96875 -0.09701,0.06 -0.176389,0.54089 -0.176389,1.06874 v 0.95973 h 1.499306 1.499305 z m 9.877775,-0.12347 c 0,-0.53358 -0.0794,-0.97014 -0.17639,-0.97014 -0.098,0 -0.17639,-0.47037 -0.17639,-1.05833 v -1.05833 h 1.360957 1.36095 l 0.84391,-0.83122 0.8439,-0.83122 v -2.40951 -2.40951 l -0.78981,-0.72802 -0.7898,-0.72802 h -2.737967 -2.737969 v 0.95972 c 0,0.52785 0.07937,1.00879 0.176389,1.06875 0.108897,0.0673 0.176389,1.58586 0.176389,3.96875 0,2.38289 -0.06749,3.90144 -0.176389,3.96875 -0.09701,0.06 -0.176389,0.54089 -0.176389,1.06874 v 0.95973 h 1.499309 1.4993 z m -0.35278,-7.05555 v -1.69253 l 1.102427,0.0525 1.10244,0.0525 v 1.5875 1.5875 l -1.10244,0.0525 -1.102427,0.0525 z m 13.581937,7.06596 c 0,-0.52785 -0.0794,-1.00878 -0.17639,-1.06874 -0.10872,-0.0672 -0.17639,-1.55994 -0.17639,-3.89097 0,-3.1753 0.0408,-3.78195 0.25418,-3.78195 0.13979,0 0.30323,0.0794 0.36318,0.17639 0.06,0.097 0.50121,0.17639 0.98055,0.17639 h 0.87154 v -1.32292 -1.32291 H 111.70778 108.18 v 1.32291 1.32292 h 0.87154 c 0.47934,0 0.92059,-0.0794 0.98054,-0.17639 0.06,-0.097 0.2234,-0.17639 0.36319,-0.17639 0.21341,0 0.25418,0.60665 0.25418,3.78195 0,2.33103 -0.0677,3.82378 -0.17639,3.89097 -0.097,0.06 -0.17639,0.54089 -0.17639,1.06874 v 0.95973 h 1.41111 1.41111 z m 6.17361,0.0994 c 0,-0.56036 -0.0949,-0.93913 -0.27227,-1.08631 -0.20298,-0.16846 -0.2591,-0.49942 -0.22049,-1.30042 l 0.0518,-1.07445 h 0.78222 0.78223 l 0.21734,0.85198 c 0.13184,0.51681 0.1784,1.36685 0.11836,2.16076 l -0.099,1.30879 h 1.52477 1.52476 v -0.9066 c 0,-0.58122 -0.0912,-0.97688 -0.2542,-1.10243 -0.13981,-0.10771 -0.41436,-0.82989 -0.61011,-1.60486 l -0.3559,-1.40903 0.43372,-0.45271 c 0.41308,-0.43116 0.43372,-0.55685 0.43372,-2.64185 v -2.18915 l -0.83122,-0.84391 -0.83122,-0.8439 h -2.69656 -2.69656 v 0.95972 c 0,0.52785 0.0794,1.00879 0.17639,1.06875 0.1089,0.0673 0.17639,1.58586 0.17639,3.96875 0,2.38289 -0.0675,3.90144 -0.17639,3.96875 -0.097,0.06 -0.17639,0.54089 -0.17639,1.06874 V 181.92 h 1.49931 1.4993 z m -0.41157,-5.78363 c -0.0647,-0.0647 -0.1176,-0.78268 -0.1176,-1.59556 v -1.47797 l 1.19063,0.0522 1.19062,0.0522 0.0522,1.29513 c 0.0323,0.803 -0.0261,1.38947 -0.15389,1.5434 -0.21139,0.25471 -1.93378,0.35882 -2.16192,0.13068 z m 11.87685,5.40926 v -1.23472 h -0.95973 c -0.52785,0 -1.00879,0.0794 -1.06874,0.17638 -0.06,0.097 -0.46152,0.17639 -0.89236,0.17639 h -0.78334 v -1.41111 -1.41111 h 1.32292 1.32292 v -1.05833 -1.05834 h -1.32292 -1.32292 v -1.32291 -1.32292 h 0.78334 c 0.43084,0 0.8324,0.0794 0.89236,0.17639 0.06,0.097 0.54089,0.17639 1.06874,0.17639 h 0.95973 v -1.32699 -1.32698 l -3.1309,0.0482 -3.13091,0.0482 -0.0523,0.89761 c -0.0375,0.64403 0.0247,0.96158 0.22049,1.12403 0.40067,0.33253 0.40822,7.61237 0.008,7.94433 -0.16901,0.14027 -0.26459,0.53037 -0.26459,1.07993 v 0.86035 h 3.175 3.175 v -1.23472 z m 7.53395,0.49244 0.75633,-0.74228 v -4.41104 -4.41103 l -0.83122,-0.84391 -0.83122,-0.8439 h -2.78475 -2.78476 v 1.04792 c 0,0.57636 0.0794,1.09698 0.17639,1.15694 0.10869,0.0672 0.17639,1.55646 0.17639,3.88055 0,2.32409 -0.0677,3.81338 -0.17639,3.88056 -0.097,0.06 -0.17639,0.54089 -0.17639,1.06874 V 181.92 h 2.85964 2.85965 z m -4.00617,-5.17448 v -3.80008 l 1.27882,0.0518 1.27881,0.0518 0.0479,3.50512 c 0.0333,2.43634 -0.0136,3.57926 -0.15389,3.74827 -0.13285,0.16008 -0.58606,0.24313 -1.32671,0.24313 h -1.12493 z m 12.17083,4.68204 v -1.23472 h -0.95973 c -0.52785,0 -1.00879,0.0794 -1.06874,0.17638 -0.0961,0.15551 -1.6757,0.26687 -1.6757,0.11814 0,-0.032 0.83344,-1.86926 1.85209,-4.08271 1.54473,-3.35661 1.85208,-4.16653 1.85208,-4.88063 v -0.85618 h -3.09453 -3.09454 l 0.0518,1.27882 0.0518,1.27881 0.78332,0.0559 c 0.43083,0.0307 0.95286,-0.0349 1.16008,-0.14575 0.20721,-0.11089 0.61697,-0.17573 0.91057,-0.14408 l 0.53383,0.0576 -1.82619,3.95213 c -1.5221,3.29405 -1.82619,4.09442 -1.82619,4.8066 v 0.85446 h 3.175 3.175 z m -41.63447,-19.0059 -0.007,-3.83646 -0.70144,-0.48524 -0.70145,-0.48523 0.0467,-5.3356 0.0467,-5.3356 5.15937,-0.0468 5.15938,-0.0468 v 5.44728 5.44728 l -0.70556,0.46691 -0.70556,0.46692 v 3.78986 3.78985 h 5.64445 5.64444 v -3.83891 -3.83892 l -0.70555,-0.43606 -0.70556,-0.43605 V 141.9287 126.89159 l 0.70556,-0.46691 0.70555,-0.46692 v -3.76892 -3.76892 h -5.64444 -5.64445 v 3.75072 3.75072 l 0.70556,0.43606 0.70556,0.43606 v 5.42641 5.42642 h -5.20348 -5.20346 v -5.37736 -5.37736 l 0.70555,-0.46691 0.70555,-0.46692 v -3.76892 -3.76892 h -5.644427 -5.644444 v 3.70584 3.70585 l 0.698861,0.48339 0.698862,0.48339 0.0067,15.12285 0.0067,15.12284 -0.705555,0.46692 -0.705556,0.46691 v 3.76892 3.76892 h 5.644442 5.644437 l -0.007,-3.83645 z"
       id="path836" />
  </g>
</svg>
